<svg class='dark:text-gray-200 dark:fill-gray-200 dark:stroke-gray-200' version="1.1" xmlns="http://www.w3.org/2000/svg" xmlns:xlink="http://www.w3.org/1999/xlink" viewBox="0,0,256,256">
    <g fill="#ffffff" fill-rule="nonzero" stroke="none" stroke-width="1" stroke-linecap="butt" stroke-linejoin="miter" stroke-miterlimit="10" stroke-dasharray="" stroke-dashoffset="0" font-family="none" font-weight="none" font-size="none" text-anchor="none" style="mix-blend-mode: normal">
        <g transform="translate(0.00001,-4.26665) scale(1.42222,1.42222)">
            <g transform="translate(20.76914,30.13066) scale(0.27043,0.27043)">
                <path d="M493.40625,190.93359h-9.14062c-8.29687,-46.14844 -30.375,-88.63281 -64.23437,-122.48828c-43.8125,-43.81641 -102.07031,-67.94531 -164.03125,-67.94531c-61.96094,0 -120.21875,24.12891 -164.03125,67.94531c-34.10156,34.10156 -56.26172,76.95313 -64.41797,123.49219h-8.95703c-10.25391,0 -18.59375,8.33984 -18.59375,18.59375v67.57031c0,10.25 8.33984,18.59375 18.59375,18.59375h14.50391c12.38672,43.01563 37.08594,81.98047 71.8125,111.8125c3.14453,2.69922 7.88281,2.34375 10.58594,-0.80078c2.70313,-3.14844 2.34375,-7.88672 -0.80078,-10.58984c-8.98437,-7.71484 -17.24609,-16.08984 -24.75,-25.01172c11.47656,-4.83594 23.20313,-8.82422 35.01563,-12.09375c5.60937,9.89844 11.90234,19.44922 18.88281,28.57031c15.29297,19.98828 32.5625,37.57422 50.96875,52.07031c-15.29297,-4.48047 -30.08203,-10.63672 -44.03125,-18.39062c-3.625,-2.01172 -8.19531,-0.70703 -10.20703,2.91797c-2.01562,3.625 -0.71094,8.19531 2.91406,10.21094c34.22266,19.01172 73.12891,29.0625 112.51172,29.0625c61.96094,0 120.21484,-24.12891 164.03125,-67.94531c28.14453,-28.14062 48.14063,-62.25391 58.85938,-99.46875h14.51563c10.25391,0 18.59375,-8.33984 18.59375,-18.59375v-68.91797c0,-10.25 -8.33984,-18.59375 -18.59375,-18.59375zM468.98047,190.93359h-52.22656c-0.625,-3.89062 -1.31641,-7.78125 -2.12109,-11.66797c-4.46094,-21.53516 -11.43359,-42.09766 -20.80469,-61.50781c1.38281,-0.37891 2.77344,-0.75 4.14844,-1.14062c9.55859,-2.73438 21.72656,-6.45313 33.67969,-11.56641c18.66797,25.62891 31.33594,54.83984 37.32422,85.88281zM401.70313,191.9375h-77.57812c-0.25781,-3.76562 -0.53906,-7.53125 -0.87109,-11.28906c-1.48828,-16.79688 -3.68359,-33.05859 -6.51172,-48.60938c21.51953,-2.23437 42.30469,-5.73047 62.24609,-10.47266c9.51172,19.09766 16.52344,39.41797 20.94141,60.74609c0.66406,3.20313 1.23828,6.41406 1.77344,9.625zM409.41406,79.05859c4.42188,4.42188 8.62109,9.00781 12.60938,13.73047c-10,4.01563 -20.0625,7.07031 -28.17578,9.39063c-2.35156,0.67187 -4.71875,1.31641 -7.09375,1.94922c-4.74609,-8.50781 -9.96094,-16.77734 -15.67187,-24.77734c-14.96484,-20.95312 -32.71094,-39.29687 -52.97266,-54.85547c34.13672,10.14844 65.41797,28.67578 91.30469,54.5625zM279.15234,16.74219c31.88281,17.92187 58.70313,41.91406 79.71094,71.33594c4.57813,6.41797 8.81641,13.02344 12.73828,19.78906c-18.54297,4.23047 -37.83594,7.36719 -57.79297,9.38672c-8.69141,-40.46484 -21.85547,-75.32031 -38.34375,-100.86719c1.23047,0.10547 2.46094,0.22266 3.6875,0.35547zM256,15.51562c0.18359,0 0.36328,0.00391 0.54688,0.00391c18.24219,24.07422 32.82813,60.03516 42.22266,103.03906c-16.03906,1.15625 -32.46875,1.62891 -49.26172,1.38281c-11.39844,-0.16406 -23.59766,-0.51953 -36.29687,-1.29297c9.39453,-43.04297 23.98828,-79.03906 42.24219,-103.12891c0.18359,0 0.36328,-0.00391 0.54687,-0.00391zM236.53516,16.38672c-16.53125,25.60547 -29.71484,60.56641 -38.40625,101.14844c-18.84766,-1.64062 -38.52734,-4.35547 -58.21484,-8.83984c4.05469,-7.05859 8.45313,-13.94141 13.22266,-20.62109c21.00781,-29.41797 47.82813,-53.41016 79.71094,-71.33594c1.22656,-0.12891 2.45703,-0.24609 3.6875,-0.35156zM195.19922,132.35547c-2.80078,15.45313 -4.97656,31.60938 -6.45312,48.29297c-0.33203,3.75781 -0.61328,7.52344 -0.86719,11.28906h-77.58984c0.53125,-3.21094 1.11719,-6.42187 1.78125,-9.625c4.35156,-21.01562 11.23438,-41.04687 20.53125,-59.90234c21.19531,5.08594 42.37109,8.12109 62.59766,9.94531zM102.58594,79.05859c25.88672,-25.88672 57.16797,-44.41406 91.30469,-54.5625c-20.26562,15.55859 -38.01172,33.90234 -52.97266,54.85547c-5.88281,8.23828 -11.23828,16.76953 -16.09375,25.55078c-11.76953,-3.26172 -23.45703,-7.24219 -34.89062,-12.0625c4,-4.73828 8.21484,-9.33984 12.65234,-13.78125zM80.33594,105.06641c12.28906,5.39453 24.84375,9.81641 37.47266,13.44531c-9.1875,19.19141 -16.03906,39.49609 -20.44141,60.75391c-0.87109,4.21875 -1.625,8.44531 -2.28516,12.67188h-52.25781c5.90625,-31.41406 18.64844,-60.97266 37.51172,-86.87109zM18.59375,281.67969c-1.97266,0 -3.57812,-1.60547 -3.57812,-3.58203v-67.57031c0,-1.97266 1.60547,-3.57812 3.57813,-3.57812h216.71875c4.14844,0 7.50781,-3.35937 7.50781,-7.50781c0,-4.14453 -3.35937,-7.50781 -7.50781,-7.50781h-32.39062c0.23438,-3.32031 0.48828,-6.64453 0.78125,-9.96094c1.48828,-16.80078 3.69141,-33.01562 6.53516,-48.46484c13.69531,0.87891 26.82031,1.26953 39.05469,1.44531c2.96094,0.04297 5.91406,0.06641 8.85938,0.06641c14.8125,0 29.34766,-0.55469 43.58984,-1.63281c2.85156,15.48438 5.0625,31.74219 6.55469,48.58594c0.29297,3.31641 0.55078,6.64063 0.78516,9.96094h-26.89453c-4.14453,0 -7.50781,3.36328 -7.50781,7.50781c0,4.14844 3.36328,7.50781 7.50781,7.50781h116.45313v74.72656h-380.04687zM396.83984,296.69141c-4.32422,16.14063 -10.30859,31.78906 -17.89844,46.67969c-19.90625,-4.73047 -40.64453,-8.23437 -62.125,-10.46875c2.15625,-11.73828 3.92578,-23.83984 5.29297,-36.20703h74.73047zM307.01953,296.69141c-1.35547,11.92578 -3.09766,23.58203 -5.21094,34.87891c-17.09375,-1.29687 -34.60937,-1.83594 -52.51562,-1.57422c-12.25781,0.17578 -25.40625,0.56641 -39.125,1.44922c-2.10156,-11.25781 -3.83594,-22.87109 -5.1875,-34.75391zM80.38281,359.86719c-13.94531,-19.21875 -24.61719,-40.5625 -31.62109,-63.17578h50.90625c4.3125,17.17188 10.36719,33.84766 18.13672,49.75c-12.61328,3.625 -25.15234,8.03906 -37.42188,13.42578zM115.17578,296.69141h74.70313c1.35547,12.26563 3.11328,24.26953 5.24609,35.91406c-20.19531,1.82031 -41.33594,4.85547 -62.49219,9.92578c-7.38672,-14.63672 -13.21484,-30.00391 -17.45703,-45.83984zM232.77344,448.16406c-28.08984,-15.82422 -54.70313,-39.55859 -77.00391,-68.70703c-5.71094,-7.45703 -10.91797,-15.23047 -15.65234,-23.25c19.60547,-4.45312 39.19922,-7.15234 57.96875,-8.78906c2.96875,13.63672 6.48828,26.69141 10.54297,38.96094c5.98438,18.08203 15.37891,42.20313 28.01172,62.17578c-1.28906,-0.11328 -2.57812,-0.25 -3.86719,-0.39063zM256,449.4375c-0.18359,0 -0.36328,-0.00781 -0.54687,-0.00781c-11.82031,-15.66016 -23.0625,-39.03516 -32.56641,-67.76563c-3.69141,-11.16016 -6.91406,-23.00391 -9.67187,-35.36328c12.69922,-0.76953 24.89453,-1.12891 36.29297,-1.29297c16.79297,-0.23828 33.21875,0.23438 49.25781,1.39063c-2.75391,12.32422 -5.97266,24.13672 -9.65234,35.26562c-9.5,28.73047 -20.74609,52.10547 -32.56641,67.76563c-0.18359,0.00391 -0.36328,0.00781 -0.54688,0.00781zM275.34375,448.57812c12.64063,-19.97656 22.04297,-44.10937 28.02344,-62.19922c4.03125,-12.18359 7.52734,-25.13672 10.48047,-38.67187c19.87109,2.01172 39.07813,5.125 57.54297,9.32813c-4.60156,7.72656 -9.64844,15.22266 -15.16016,22.42188c-22.32422,29.17578 -48.96484,52.92969 -77.08203,68.75391c-1.26563,0.13281 -2.53516,0.25391 -3.80469,0.36719zM409.41406,385.89062c-26.15625,26.15625 -57.82031,44.79688 -92.36719,54.87109c18.45703,-14.51562 35.77734,-32.14062 51.10938,-52.17969c6.80078,-8.88281 12.94141,-18.17969 18.4375,-27.80469c2.42969,0.64844 4.85156,1.30859 7.25391,1.99219c8.10547,2.32031 18.16016,5.375 28.15625,9.38672c-3.98828,4.72266 -8.16797,9.31641 -12.58984,13.73437zM431.63281,359.89062c-11.94531,-5.10547 -24.10547,-8.82422 -33.65625,-11.55469c-1.375,-0.39453 -2.76562,-0.76172 -4.14844,-1.14063c7.89453,-16.01953 14.03906,-32.83984 18.41406,-50.15625h50.95312c-6.96875,22.47266 -17.58594,43.66406 -31.5625,62.85156zM496.98438,278.10156c0,1.97266 -1.60547,3.57813 -3.57812,3.57813h-79.75391v-74.73047h79.75391c1.97266,0 3.57813,1.60938 3.57813,3.58203zM496.98438,278.10156" />
                <path d="M56.81641,258.83594c0,1.10937 -1.66797,2.27344 -3.60937,2.27344c-2.10547,0 -3.55078,-1.16406 -3.55078,-2.27344v-37.22266c0,-1.33203 1.44531,-2.22266 3.55078,-2.22266c1.94141,0 3.60938,0.89063 3.60938,2.22266v17.02734c0.99609,-2.16016 3.49219,-4.21484 6.98828,-4.21484c5.10156,0 9.53906,5.10547 9.53906,11.26172v13.14453c0,1.5 -1.82812,2.27734 -3.60547,2.27734c-1.66406,0 -3.55078,-0.77734 -3.55078,-2.27734v-13.14453c0,-2.49609 -2.21875,-4.99219 -4.82422,-4.99219c-2.27344,0 -4.55078,1.88281 -4.55078,4.99219v13.14844zM56.81641,258.83594" />
                <path d="M89.10156,252.12109c0,2.16406 0.77734,2.94141 3.10938,2.94141h2.16406c2.05078,0 3.05078,1.5 3.05078,2.99609c0,1.55469 -1,3.05078 -3.05078,3.05078h-2.16406c-6.65625,0 -10.26172,-2.71875 -10.26172,-8.98828v-26.90234c0,-1.33203 1.88281,-2.21875 3.55078,-2.21875c1.82813,0 3.60547,0.88672 3.60547,2.21875v9.53906h6.54688c1.16406,0 1.82813,1.33203 1.82813,2.60938c0,1.32812 -0.66406,2.60547 -1.82812,2.60547h-6.54687v12.14844zM89.10156,252.12109" />
                <path d="M111.68359,252.12109c0,2.16406 0.77344,2.94141 3.10547,2.94141h2.16406c2.05078,0 3.05078,1.5 3.05078,2.99609c0,1.55469 -1,3.05078 -3.05078,3.05078h-2.16406c-6.65625,0 -10.26172,-2.71875 -10.26172,-8.98828v-26.90234c0,-1.33203 1.88672,-2.21875 3.55078,-2.21875c1.83203,0 3.60547,0.88672 3.60547,2.21875v9.53906h6.54688c1.16406,0 1.82813,1.33203 1.82813,2.60938c0,1.32812 -0.66406,2.60547 -1.82812,2.60547h-6.54687zM111.68359,252.12109" />
                <path d="M133.92969,236.97656v1.66406c1.27344,-2.16016 3.9375,-4.21484 7.48828,-4.21484c5.54688,0 9.92969,5.10547 9.92969,11.26172v4.54688c0,5.9375 -4.54687,11.375 -9.70703,11.375c-3.32812,0 -6.21484,-2.10937 -7.26562,-4.38281v13.86719c0,1.16406 -1.66406,2.27344 -3.66406,2.27344c-2.05078,0 -3.49219,-1.10938 -3.49219,-2.27344v-34.11719c0,-1.33203 1.49609,-2.21875 3.38281,-2.21875c1.94141,0 3.32813,0.88672 3.32813,2.21875zM144.19141,245.6875c0,-2.49609 -2.27344,-4.99219 -5.04687,-4.99219c-2.32812,0 -4.76953,1.88281 -4.76953,4.99219v5.54688c0,1.16406 2.05078,4.10547 4.87891,4.10547c2.60938,0 4.9375,-2.55078 4.9375,-5.10547zM144.19141,245.6875" />
                <path d="M171.71094,253.78516c0,-4.87891 -13.14844,-1.82812 -13.14844,-11.09375c0,-3.9375 2.49609,-8.26562 9.92969,-8.26562c4.49609,0 8.82031,1.55469 8.82031,3.60547c0,1 -0.94141,3.44141 -2.60547,3.44141c-1.33203,0 -3.05078,-1.60937 -6.10156,-1.60937c-2.77344,0 -3.88281,1.38672 -3.88281,2.49609c0,4.05078 13.3125,1.27734 13.3125,11.14844c0,4.94141 -3.66016,8.10156 -10.20703,8.10156c-5.65625,0 -10.03906,-2.33203 -10.03906,-4.77344c0,-1.16406 0.99609,-3.16016 2.38281,-3.16016c1.60938,0 2.83203,2.49609 7.49219,2.49609c3.26953,0 4.04688,-1.27734 4.04688,-2.38672zM171.71094,253.78516" />
                <path d="M192.73828,241.47266c0,1.99609 -1.71875,3.76953 -3.71484,3.76953c-2.16406,0 -3.77344,-1.77344 -3.77344,-3.76953c0,-2.05469 1.60938,-3.77344 3.77344,-3.77344c1.99609,0 3.71484,1.71875 3.71484,3.77344zM192.73828,257.66797c0,2 -1.71875,3.77344 -3.71484,3.77344c-2.16406,0 -3.77344,-1.77344 -3.77344,-3.77344c0,-2.05078 1.60938,-3.76953 3.77344,-3.76953c1.99609,0 3.71484,1.71875 3.71484,3.76953zM192.73828,257.66797" />
                <path d="M224.41406,220.83594c0,0.33203 -0.05469,0.66406 -0.22266,0.99609l-19.91406,40.27734c-0.39062,0.77344 -1.27734,1.21875 -2.16406,1.21875c-1.60937,0 -2.66406,-1.27344 -2.66406,-2.44141c0,-0.33203 0.11328,-0.66406 0.27734,-0.94141l19.91406,-40.44141c0.39063,-0.77734 1.16797,-1.16406 2,-1.16406c1.33203,0 2.77344,0.99609 2.77344,2.49609zM224.41406,220.83594" />
                <path d="M241.17188,220.83594c0,0.33203 -0.05859,0.66406 -0.22266,0.99609l-19.91797,40.27734c-0.38672,0.77344 -1.27344,1.21875 -2.16016,1.21875c-1.60937,0 -2.66406,-1.27344 -2.66406,-2.44141c0,-0.33203 0.10938,-0.66406 0.27734,-0.94141l19.91406,-40.44141c0.39062,-0.77734 1.16406,-1.16406 2,-1.16406c1.32812,0 2.77344,0.99609 2.77344,2.49609zM241.17188,220.83594" />
                <path d="M273.23828,260.44141c-0.39062,0.94531 -1.60937,1.27734 -2.82812,1.27734c-1.38672,0 -2.60937,-0.44531 -2.94141,-1.27734l-4.27344,-12.09375l-4.21484,12.03906c-0.33203,0.88672 -1.66406,1.33203 -3.05078,1.33203c-1.16406,0 -2.38672,-0.33203 -2.77344,-1.33203l-8.54297,-21.91016c-0.22266,-0.44531 -0.27734,-0.77734 -0.27734,-1.05469c0,-1.71875 2.77344,-2.94141 4.66016,-2.94141c0.94141,0 1.77344,0.38672 2.05078,1.16406l5.54687,15.75391l4.16016,-13.70313c0.39063,-1.27344 1.33203,-1.44141 2.44141,-1.44141c1.05469,0 2.05469,0.16797 2.44141,1.44141l4.10547,13.75781l5.60156,-15.80859c0.27734,-0.72266 1.05469,-1.16406 2.05469,-1.16406c1.77344,0 4.60547,1.21875 4.60547,2.99609c0,0.33203 -0.05469,0.71875 -0.22266,1zM273.23828,260.44141" />
                <path d="M315.01172,260.44141c-0.38672,0.94531 -1.60547,1.27734 -2.82812,1.27734c-1.38672,0 -2.60547,-0.44531 -2.94141,-1.27734l-4.26953,-12.09375l-4.21875,12.03906c-0.33203,0.88672 -1.66016,1.33203 -3.05078,1.33203c-1.16406,0 -2.38281,-0.33203 -2.77344,-1.33203l-8.54297,-21.91016c-0.22266,-0.44531 -0.27734,-0.77734 -0.27734,-1.05469c0,-1.71875 2.77344,-2.94141 4.66016,-2.94141c0.94141,0 1.77344,0.38672 2.05469,1.16406l5.54688,15.75391l4.16016,-13.70313c0.38672,-1.27344 1.33203,-1.44141 2.44141,-1.44141c1.05469,0 2.05078,0.16797 2.4375,1.44141l4.10547,13.75781l5.60547,-15.80859c0.27734,-0.72266 1.05469,-1.16406 2.05078,-1.16406c1.77734,0 4.60547,1.21875 4.60547,2.99609c0,0.33203 -0.05469,0.71875 -0.22266,1zM315.01172,260.44141" />
                <path d="M356.78906,260.44141c-0.38672,0.94531 -1.60547,1.27734 -2.82812,1.27734c-1.38672,0 -2.60547,-0.44531 -2.94141,-1.27734l-4.26953,-12.09375l-4.21875,12.03906c-0.33203,0.88672 -1.66406,1.33203 -3.05078,1.33203c-1.16406,0 -2.38281,-0.33203 -2.77344,-1.33203l-8.54297,-21.91016c-0.22266,-0.44531 -0.27734,-0.77734 -0.27734,-1.05469c0,-1.71875 2.77344,-2.94141 4.66016,-2.94141c0.94141,0 1.77344,0.38672 2.05469,1.16406l5.54688,15.75391l4.16016,-13.70313c0.38672,-1.27344 1.32813,-1.44141 2.4375,-1.44141c1.05469,0 2.05469,0.16797 2.44141,1.44141l4.10547,13.75781l5.60547,-15.80859c0.27344,-0.72266 1.05469,-1.16406 2.05078,-1.16406c1.77344,0 4.60547,1.21875 4.60547,2.99609c0,0.33203 -0.05469,0.71875 -0.22266,1zM356.78906,260.44141" />
                <path d="M477.14063,228.30078l-8.09766,-1.17578l-3.62109,-7.33984c-1.91406,-3.875 -5.78125,-6.27734 -10.10156,-6.27734c-4.32031,0 -8.19141,2.40625 -10.10156,6.27734l-3.62109,7.33984l-8.09766,1.17578c-4.27734,0.62109 -7.75781,3.55859 -9.09375,7.66406c-1.33594,4.10938 -0.24219,8.53516 2.85156,11.55078l5.85938,5.71094l-1.38281,8.06641c-0.73437,4.25391 0.98438,8.47656 4.48047,11.01563c3.49219,2.53906 8.03516,2.87109 11.86328,0.85938l7.24219,-3.80859l7.24219,3.80859c1.66406,0.87109 3.46094,1.30469 5.25391,1.30469c2.32422,0 4.63672,-0.73047 6.60938,-2.16406c3.49219,-2.53906 5.21094,-6.76172 4.48047,-11.01562l-1.38281,-8.06641l5.85937,-5.71094c3.09375,-3.01562 4.18359,-7.44141 2.85156,-11.55078c-1.33594,-4.10547 -4.82031,-7.04297 -9.09375,-7.66406zM465.62891,243.85156c-2.65234,2.58984 -3.86328,6.31641 -3.23828,9.96875l0.43359,2.51953l-2.26172,-1.1875c-3.28125,-1.72656 -7.19922,-1.72656 -10.48437,0l-2.26172,1.1875l0.42969,-2.51953c0.62891,-3.65234 -0.58203,-7.37891 -3.23828,-9.96875l-1.82812,-1.78516l2.52734,-0.36719c3.66797,-0.53125 6.83984,-2.83594 8.48438,-6.16016l1.12891,-2.29297l1.13281,2.29297c1.64063,3.32422 4.8125,5.62891 8.48047,6.16016l2.52734,0.36719zM465.62891,243.85156" />
            </g>
        </g>
    </g>
</svg>